<?xml version="1.0" standalone="no"?><!DOCTYPE svg PUBLIC "-//W3C//DTD SVG 1.1//EN" "http://www.w3.org/Graphics/SVG/1.1/DTD/svg11.dtd"><svg t="1535952118201" class="icon" style="" viewBox="0 0 1024 1024" version="1.1" xmlns="http://www.w3.org/2000/svg" p-id="697" xmlns:xlink="http://www.w3.org/1999/xlink" width="128" height="128"><defs><style type="text/css"></style></defs><path d="M883.6 64.2H139.5c-23.4 0-42.6 20.7-42.6 46v803.5c0 25.3 19.2 46 42.6 46h744.1c23.4 0 42.6-20.7 42.6-46V110.2c0-25.3-19.2-46-42.6-46zM444.4 855.5l-60.2-178.6 78.6-233.3h120.4L444.4 855.5zM302.7 313.7l-43.8 130-43.8-130 43.8-130h527.7l43.8 130H302.7z" fill="#0C6389" p-id="698"></path><path d="M258.9 183.6l-43.8 130.1 43.8 130 43.8-130h527.8l-43.8-130.1zM384.2 676.9l60.2 178.6 138.8-411.8H462.8z" fill="#FFFFFF" p-id="699"></path></svg>